<?xml version="1.0" encoding="utf-8"?>
<svg version="1.1" id="Layer_1" xmlns="http://www.w3.org/2000/svg" xmlns:xlink="http://www.w3.org/1999/xlink" x="0px" y="0px"
	 viewBox="0 0 256 256" style="enable-background:new 0 0 256 256;" xml:space="preserve">
<style type="text/css">
	.st0{fill:url(#SVGID_1_);stroke:#5D6AA5;stroke-width:18;}
	.st1{fill:url(#SVGID_2_);}
	.st2{opacity:0.46;}
	.st3{fill:#FFFFFF;}
</style>
<symbol  id="BigBlueButton" viewBox="-207.5 -207.5 415 415">
	<g>
		
			<linearGradient id="SVGID_1_" gradientUnits="userSpaceOnUse" x1="-736.348" y1="-459.8855" x2="-508.634" y2="-785.0945" gradientTransform="matrix(1 0 0 1 622.491 622.49)">
			<stop  offset="0" style="stop-color:#283274"/>
			<stop  offset="0.7088" style="stop-color:#283375"/>
			<stop  offset="0.967" style="stop-color:#273F88"/>
		</linearGradient>
		<path class="st0" d="M198.5,0c0-109.6-88.9-198.5-198.5-198.5S-198.5-109.6-198.5,0S-109.6,198.5,0,198.5S198.5,109.6,198.5,0z"/>
		
			<linearGradient id="SVGID_2_" gradientUnits="userSpaceOnUse" x1="-750.1782" y1="-434.4263" x2="-635.9303" y2="-597.5892" gradientTransform="matrix(1 0 0 1 640.9856 590.5388)">
			<stop  offset="0" style="stop-color:#BFC8E6"/>
			<stop  offset="7.720000e-02" style="stop-color:#B6BEDD"/>
			<stop  offset="0.2039" style="stop-color:#9FA4C9"/>
			<stop  offset="0.3642" style="stop-color:#7F82AE"/>
			<stop  offset="0.5519" style="stop-color:#585C92"/>
			<stop  offset="0.7582" style="stop-color:#283375"/>
		</linearGradient>
		<path class="st1" d="M0.5,190.3c50.3-0.4,104.3-20.5,143.3-67c-1.7-39.9-73-80.7-132.5-125.7c-49.9-37.7-126.4-73.1-178.6-87
			c-49.7,95.2-13.6,186.6,48.8,238C-89.3,174.1-45.4,190.6,0.5,190.3z"/>
	</g>
	<g>
		<g>
			<path d="M107.4-49.4c0-16.8-5.9-31-17.7-42.8s-26.1-17.7-42.8-17.7h-72.2c-16.8,0-31,5.9-42.8,17.7C-80-80.4-85.8-66.1-85.8-49.4
				v181.1c12.9,0,23.8-6.3,32.9-18.9s13.6-27.7,13.6-45.4V-49.4c0-9.3,4.7-14,14-14h72.2c9.3,0,14,4.7,14,14V6c0,9-4.7,13.7-14,14
				h-14c-18,0.6-33.2,5.3-45.6,14.1s-18.6,19.6-18.6,32.5h78.2c16.8,0,31-5.9,42.8-17.7s17.7-26.1,17.7-42.8L107.4-49.4L107.4-49.4z
				"/>
		</g>
	</g>
	<g class="st2">
		<g>
			<path class="st3" d="M107.4-49.4c0-16.8-5.9-31-17.7-42.8s-26.1-17.7-42.8-17.7h-72.2c-16.8,0-31,5.9-42.8,17.7
				C-80-80.4-85.8-66.1-85.8-49.4v181.1c12.9,0,23.8-6.3,32.9-18.9s13.6-27.7,13.6-45.4V-49.4c0-9.3,4.7-14,14-14h72.2
				c9.3,0,14,4.7,14,14V6c0,9-4.7,13.7-14,14h-14c-18,0.6-33.2,5.3-45.6,14.1s-18.6,19.6-18.6,32.5h78.2c16.8,0,31-5.9,42.8-17.7
				s17.7-26.1,17.7-42.8L107.4-49.4L107.4-49.4z"/>
		</g>
	</g>
	<g>
		<path class="st3" d="M104-51.7c0-16.8-5.9-31-17.7-42.8s-26.1-17.7-42.8-17.7h-72.2c-16.8,0-31,5.9-42.8,17.7
			s-17.7,26.1-17.7,42.8v181.1c12.9,0,23.8-6.3,32.9-18.9s13.6-27.7,13.6-45.4V-51.7c0-9.3,4.7-14,14-14h72.2c9.3,0,14,4.7,14,14
			V3.7c0,9-4.7,13.7-14,14h-14c-18,0.6-33.2,5.3-45.6,14.1s-18.6,19.6-18.6,32.5h78.2c16.8,0,31-5.9,42.8-17.7
			C98.1,34.7,104,20.4,104,3.7V-51.7L104-51.7z"/>
	</g>
</symbol>
<g>
	<g>
		<g>
			
				<use xlink:href="#BigBlueButton"  width="415" height="415" x="-207.5" y="-207.5" transform="matrix(0.6169 0 0 -0.6169 128 128)" style="overflow:visible;"/>
		</g>
	</g>
</g>
</svg>
